<svg width="18" height="20" viewBox="0 0 18 20" fill="none" xmlns="http://www.w3.org/2000/svg">
<path d="M6.95474 9.92007L9.0002 11.9603L12.5798 8.38993M9.00015 0.90918C6.8899 1.98826 4.53888 2.56202 2.13565 2.56202C1.8112 2.56202 1.48769 2.55157 1.16561 2.53082C0.749843 4.42763 0.703842 6.40133 1.04698 8.34233C1.66124 11.817 3.48329 14.9648 6.19311 17.2327C7.06195 17.9599 8.00425 18.5817 9.00018 19.091C9.9961 18.5817 10.9384 17.9599 11.8072 17.2327C14.5171 14.9648 16.3391 11.817 16.9534 8.34233C17.2965 6.40133 17.2505 4.42763 16.8347 2.53081C16.5126 2.55156 16.1891 2.56202 15.8646 2.56202C13.4614 2.56202 11.1104 1.98826 9.00015 0.90918Z" stroke="#0266C1"/>
</svg>
