<svg width="20" height="14" viewBox="0 0 20 14" fill="none" xmlns="http://www.w3.org/2000/svg">
<path d="M9.71852 11.7678C9.10239 9.1652 7.29057 6.97473 4.79593 5.81647C3.56735 5.24604 2.23902 4.95654 0.90918 4.94797C0.986955 6.79219 1.66762 8.58738 2.88672 10.0612C4.60041 12.1331 7.1929 13.3461 9.93922 13.3638C9.91677 12.8308 9.84371 12.2966 9.71852 11.7678ZM9.71852 11.7678C9.21273 9.63126 7.90108 7.77249 6.06744 6.53449C6.09839 6.34989 6.13557 6.16565 6.17904 5.98206C6.70032 3.78008 8.07754 1.87312 10.0001 0.636719C11.9226 1.87312 13.2998 3.78008 13.8211 5.98206C13.8645 6.16564 13.9017 6.34987 13.9327 6.53446C12.099 7.77247 10.7875 9.63125 10.2817 11.7678M9.71852 11.7678C9.84367 12.2965 9.91667 12.8305 9.93914 13.3633C9.97716 13.3638 10.0152 13.364 10.0533 13.364C10.8232 13.364 11.5814 13.27 12.312 13.0895C12.3161 13.084 12.3203 13.0785 12.3244 13.073C11.5928 13.2594 10.833 13.3588 10.061 13.3638M10.2817 11.7678C10.8978 9.1652 12.7096 6.97473 15.2042 5.81647C16.4328 5.24604 17.7612 4.95654 19.091 4.94797C19.0132 6.79219 18.3326 8.58738 17.1135 10.0612C15.3998 12.1331 12.8073 13.3461 10.061 13.3638M10.2817 11.7678C10.1565 12.2966 10.0834 12.8308 10.061 13.3638" stroke="#0266C1" stroke-linecap="round" stroke-linejoin="round"/>
</svg>
